The Abyss (1989)

Director: James Cameron

The Abyss is a 1989 science fiction film written and directed by James Cameron. It stars Ed Harris, Mary Elizabeth Mastrantonio, and Michael Biehn. The original musical score was composed by Alan Silvestri. It was released on August 9, 1989 in North America.

Underwater scenes were filmed in the containment building of Cherokee Nuclear Power Plant, an unfinished nuclear power plant on Owensby Road, near Gaffney, South Carolina, in the United States. It took seven million gallons (26.5 million liters) of water to fill the tank to a depth of 40 feet (12 m), making it the largest underwater filming set ever constructed. The depth and length of time spent underwater meant that the cast and crew sometimes had to go through decompression. Filming was also done at the largest underground lake in the world — a mine in Bonne Terre, Missouri, which was the background for several underwater shots.

The Abyss won the 1990 Oscar for Best Visual Effects. It was also nominated for Best Art Direction/Set Decoration, Best Cinematography and Best Sound. The studio lobbied hard to get Michael Biehn nominated for the Academy Award for Best Supporting Actor.

The Abyss was nominated for many other awards, such as by Academy of Science Fiction, Fantasy & Horror Films and the American Society of Cinematographers. It ended up winning a total of three other awards from these organizations.

Media Info:
General
Complete name                    : J:\Seeding\The Abyss (1989)[DVDRip][big_dad_e™]\The Abyss (1989)[DVDRip][big_dad_e™].avi
Format                           : AVI
Format/Info                      : Audio Video Interleave
Format profile                   : OpenDML
File size                        : 1.25 GiB
Duration                         : 2h 25mn
Overall bit rate                 : 1 234 Kbps
Movie name                       : THE_ABYSS_FRENCH.Title2.DVDRip
Writing application              : Lavf52.78.4
Original source form/Name        : THE_ABYSS_FRENCH

Video
ID                               : 0
Format                           : MPEG-4 Visual
Format profile                   : Advanced Simple@L5
Format settings, BVOP            : 2
Format settings, QPel            : No
Format settings, GMC             : No warppoints
Format settings, Matrix          : Default (H.263)
Muxing mode                      : Packed bitstream
Codec ID                         : XVID
Codec ID/Hint                    : XviD
Duration                         : 2h 25mn
Bit rate                         : 199 Kbps
Width                            : 640 pixels
Height                           : 278 pixels
Display aspect ratio             : 2.35:1
Frame rate                       : 23.976 fps
Color space                      : YUV
Chroma subsampling               : 4:2:0
Bit depth                        : 8 bits
Scan type                        : Progressive
Compression mode                 : Lossy
Bits/(Pixel*Frame)               : 0.047
Stream size                      : 207 MiB (16%)
Writing library                  : XviD 1.2.1 (UTC 2008-12-04)

Audio
ID                               : 1
Format                           : MPEG Audio
Format version                   : Version 1
Format profile                   : Layer 3
Mode                             : Joint stereo
Codec ID                         : 55
Codec ID/Hint                    : MP3
Duration                         : 2h 25mn
Bit rate mode                    : Constant
Bit rate                         : 320 Kbps
Channel(s)                       : 2 channels
Sampling rate                    : 48.0 KHz
Compression mode                 : Lossy
Stream size                      : 64.1 MiB (5%)
Alignment                        : Aligned on interleaves
Interleave, duration             : 29 ms (0.69 video frame)
Writing library                  : LAME3.98.4

File Scan:
Malwarebytes' Anti-Malware 1.50.1.1100
www.malwarebytes.org

Database version: 6220
3/30/2011 6:26:57 PM
mbam-log-2011-03-30 (18-26-57).txt

Scan type: Quick scan
Objects scanned: 5
Time elapsed: 18 second(s)

Memory Processes Infected: 0
Memory Modules Infected: 0
Registry Keys Infected: 0
Registry Values Infected: 0
Registry Data Items Infected: 0
Folders Infected: 0
Files Infected: 0

Memory Processes Infected:
(No malicious items detected)

Memory Modules Infected:
(No malicious items detected)

Registry Keys Infected:
(No malicious items detected)

Registry Values Infected:
(No malicious items detected)

Registry Data Items Infected:
(No malicious items detected)

Folders Infected:
(No malicious items detected)

Files Infected:
(No malicious items detected)

When using TPB please read these important notes:
  
01- Anti-malware apps may warn about keygens, patches, cracks, etc., because of 
    their capabilities, (generating codes, etc.). Sometimes they're added to 
    the virus/spyware database and will be detected as malware. If you don't trust
    the keygens, patches, cracks, etc., don't use them. 
    
02- Before running .exe-files, keygens, patches, cracks, etc., always check first 
    if they can be unpacked. Often some third party added a virus to the 
    original file, repacked it and uploaded it again.

03- Letting anti-malware apps send scan results to their companies can cause
    keygens, patches, cracks, etc., to be added to their virus-database.

04- Firewalls which are set to automatically determine connections will allow 
    apps & malware!. Avoid this by manually configuring your firewall.

05- Usually (new) torrents with many downloads and seeders in a brief period is
    suspicious! Torrents with the Skull & Crossbones icon are trusted.

06- Some people use multiple accounts and post fake comments 
    and/or files trying to spread confusion. They seldom seriously
    comment or have any torrents, or a just a few to look passable.

07- Clicking on unknown links can cause malware to be installed on your machine.
  
08- In general often there are more fake and negative comments than reliable and
    positive comments.

09- In some countries uploading/downloading copyright protected material is 
    forbidden, but showing some appreciation to reliable up-loaders is not.

10- Posting fake and negative comments or fake/infected uploads on TPB can result
    in getting banned from TPB!

Requests?  Find me on SuprBay. http://forum.suprbay.org
 

For reporting bad or suspicious torrents:  
http://forum.suprbay.org/forumdisplay.php?fid=29

For more of my torrents: 
https://thepiratebay.org/user/big_dad_e/  (Secured)

All torrents scanned with:
Norton Anti-virus
Malwarebytes' Anti-malware
 
http://www.pirate-party.us/

ALWAYS SEED & THANKS SEEDERS!